<svg id="visual" viewBox="0 0 960 300" width="960" height="300" xmlns="http://www.w3.org/2000/svg" xmlns:xlink="http://www.w3.org/1999/xlink" version="1.1"><path d="M0 162L16 164.5C32 167 64 172 96 166C128 160 160 143 192 138.2C224 133.3 256 140.7 288 147.2C320 153.7 352 159.3 384 156.3C416 153.3 448 141.7 480 136.5C512 131.3 544 132.7 576 137.7C608 142.7 640 151.3 672 149.7C704 148 736 136 768 131.5C800 127 832 130 864 136.8C896 143.7 928 154.3 944 159.7L960 165L960 0L944 0C928 0 896 0 864 0C832 0 800 0 768 0C736 0 704 0 672 0C640 0 608 0 576 0C544 0 512 0 480 0C448 0 416 0 384 0C352 0 320 0 288 0C256 0 224 0 192 0C160 0 128 0 96 0C64 0 32 0 16 0L0 0Z" fill="#715df2"></path><path d="M0 123L16 128.3C32 133.7 64 144.3 96 143.2C128 142 160 129 192 126C224 123 256 130 288 132.3C320 134.7 352 132.3 384 132.5C416 132.7 448 135.3 480 134.5C512 133.7 544 129.3 576 127.3C608 125.3 640 125.7 672 124.2C704 122.7 736 119.3 768 122C800 124.7 832 133.3 864 134.7C896 136 928 130 944 127L960 124L960 0L944 0C928 0 896 0 864 0C832 0 800 0 768 0C736 0 704 0 672 0C640 0 608 0 576 0C544 0 512 0 480 0C448 0 416 0 384 0C352 0 320 0 288 0C256 0 224 0 192 0C160 0 128 0 96 0C64 0 32 0 16 0L0 0Z" fill="#6f58f4"></path><path d="M0 105L16 106.3C32 107.7 64 110.3 96 112.5C128 114.7 160 116.3 192 121.3C224 126.3 256 134.7 288 138.5C320 142.3 352 141.7 384 141.3C416 141 448 141 480 135.7C512 130.3 544 119.7 576 114.5C608 109.3 640 109.7 672 115C704 120.3 736 130.7 768 129.8C800 129 832 117 864 115.3C896 113.7 928 122.3 944 126.7L960 131L960 0L944 0C928 0 896 0 864 0C832 0 800 0 768 0C736 0 704 0 672 0C640 0 608 0 576 0C544 0 512 0 480 0C448 0 416 0 384 0C352 0 320 0 288 0C256 0 224 0 192 0C160 0 128 0 96 0C64 0 32 0 16 0L0 0Z" fill="#6e53f5"></path><path d="M0 120L16 120.2C32 120.3 64 120.7 96 118C128 115.3 160 109.7 192 111.2C224 112.7 256 121.3 288 124.8C320 128.3 352 126.7 384 120.3C416 114 448 103 480 99.7C512 96.3 544 100.7 576 101.5C608 102.3 640 99.7 672 99.5C704 99.3 736 101.7 768 100.5C800 99.3 832 94.7 864 96.2C896 97.7 928 105.3 944 109.2L960 113L960 0L944 0C928 0 896 0 864 0C832 0 800 0 768 0C736 0 704 0 672 0C640 0 608 0 576 0C544 0 512 0 480 0C448 0 416 0 384 0C352 0 320 0 288 0C256 0 224 0 192 0C160 0 128 0 96 0C64 0 32 0 16 0L0 0Z" fill="#6c4ef7"></path><path d="M0 88L16 93.5C32 99 64 110 96 114.2C128 118.3 160 115.7 192 112C224 108.3 256 103.7 288 98.3C320 93 352 87 384 87.2C416 87.3 448 93.7 480 97C512 100.3 544 100.7 576 98.3C608 96 640 91 672 93.2C704 95.3 736 104.7 768 106.3C800 108 832 102 864 98.3C896 94.7 928 93.3 944 92.7L960 92L960 0L944 0C928 0 896 0 864 0C832 0 800 0 768 0C736 0 704 0 672 0C640 0 608 0 576 0C544 0 512 0 480 0C448 0 416 0 384 0C352 0 320 0 288 0C256 0 224 0 192 0C160 0 128 0 96 0C64 0 32 0 16 0L0 0Z" fill="#6b49f8"></path><path d="M0 106L16 104.2C32 102.3 64 98.7 96 98C128 97.3 160 99.7 192 96C224 92.3 256 82.7 288 81.3C320 80 352 87 384 86.5C416 86 448 78 480 76.3C512 74.7 544 79.3 576 81.3C608 83.3 640 82.7 672 81.3C704 80 736 78 768 77.5C800 77 832 78 864 82.8C896 87.7 928 96.3 944 100.7L960 105L960 0L944 0C928 0 896 0 864 0C832 0 800 0 768 0C736 0 704 0 672 0C640 0 608 0 576 0C544 0 512 0 480 0C448 0 416 0 384 0C352 0 320 0 288 0C256 0 224 0 192 0C160 0 128 0 96 0C64 0 32 0 16 0L0 0Z" fill="#6a43f9"></path><path d="M0 69L16 70.8C32 72.7 64 76.3 96 78.5C128 80.7 160 81.3 192 82C224 82.7 256 83.3 288 82.2C320 81 352 78 384 79C416 80 448 85 480 83C512 81 544 72 576 68C608 64 640 65 672 68C704 71 736 76 768 78.7C800 81.3 832 81.7 864 78.7C896 75.7 928 69.3 944 66.2L960 63L960 0L944 0C928 0 896 0 864 0C832 0 800 0 768 0C736 0 704 0 672 0C640 0 608 0 576 0C544 0 512 0 480 0C448 0 416 0 384 0C352 0 320 0 288 0C256 0 224 0 192 0C160 0 128 0 96 0C64 0 32 0 16 0L0 0Z" fill="#683dfb"></path><path d="M0 76L16 75.7C32 75.3 64 74.7 96 74.7C128 74.7 160 75.3 192 71.3C224 67.3 256 58.7 288 54.3C320 50 352 50 384 52C416 54 448 58 480 62.7C512 67.3 544 72.7 576 73.7C608 74.7 640 71.3 672 71.3C704 71.3 736 74.7 768 74.7C800 74.7 832 71.3 864 70.3C896 69.3 928 70.7 944 71.3L960 72L960 0L944 0C928 0 896 0 864 0C832 0 800 0 768 0C736 0 704 0 672 0C640 0 608 0 576 0C544 0 512 0 480 0C448 0 416 0 384 0C352 0 320 0 288 0C256 0 224 0 192 0C160 0 128 0 96 0C64 0 32 0 16 0L0 0Z" fill="#6836fc"></path><path d="M0 38L16 38.3C32 38.7 64 39.3 96 43C128 46.7 160 53.3 192 55.3C224 57.3 256 54.7 288 51.5C320 48.3 352 44.7 384 43.7C416 42.7 448 44.3 480 46C512 47.7 544 49.3 576 50.3C608 51.3 640 51.7 672 50.5C704 49.3 736 46.7 768 46.3C800 46 832 48 864 48.3C896 48.7 928 47.3 944 46.7L960 46L960 0L944 0C928 0 896 0 864 0C832 0 800 0 768 0C736 0 704 0 672 0C640 0 608 0 576 0C544 0 512 0 480 0C448 0 416 0 384 0C352 0 320 0 288 0C256 0 224 0 192 0C160 0 128 0 96 0C64 0 32 0 16 0L0 0Z" fill="#672efd"></path><path d="M0 47L16 46.5C32 46 64 45 96 43.7C128 42.3 160 40.7 192 40.2C224 39.7 256 40.3 288 39.8C320 39.3 352 37.7 384 38C416 38.3 448 40.7 480 40.3C512 40 544 37 576 38.2C608 39.3 640 44.7 672 46.5C704 48.3 736 46.7 768 45.3C800 44 832 43 864 41C896 39 928 36 944 34.5L960 33L960 0L944 0C928 0 896 0 864 0C832 0 800 0 768 0C736 0 704 0 672 0C640 0 608 0 576 0C544 0 512 0 480 0C448 0 416 0 384 0C352 0 320 0 288 0C256 0 224 0 192 0C160 0 128 0 96 0C64 0 32 0 16 0L0 0Z" fill="#6624fe"></path><path d="M0 29L16 27.2C32 25.3 64 21.7 96 22C128 22.3 160 26.7 192 27.5C224 28.3 256 25.7 288 24.8C320 24 352 25 384 25.8C416 26.7 448 27.3 480 27.5C512 27.7 544 27.3 576 26.7C608 26 640 25 672 24.5C704 24 736 24 768 24.2C800 24.3 832 24.7 864 25.2C896 25.7 928 26.3 944 26.7L960 27L960 0L944 0C928 0 896 0 864 0C832 0 800 0 768 0C736 0 704 0 672 0C640 0 608 0 576 0C544 0 512 0 480 0C448 0 416 0 384 0C352 0 320 0 288 0C256 0 224 0 192 0C160 0 128 0 96 0C64 0 32 0 16 0L0 0Z" fill="#6617fe"></path><path d="M0 10L16 10.8C32 11.7 64 13.3 96 14.5C128 15.7 160 16.3 192 17C224 17.7 256 18.3 288 19.2C320 20 352 21 384 19.3C416 17.7 448 13.3 480 11.7C512 10 544 11 576 13C608 15 640 18 672 18.5C704 19 736 17 768 15.2C800 13.3 832 11.7 864 10.8C896 10 928 10 944 10L960 10L960 0L944 0C928 0 896 0 864 0C832 0 800 0 768 0C736 0 704 0 672 0C640 0 608 0 576 0C544 0 512 0 480 0C448 0 416 0 384 0C352 0 320 0 288 0C256 0 224 0 192 0C160 0 128 0 96 0C64 0 32 0 16 0L0 0Z" fill="#6600ff"></path></svg>