<svg id="visual" viewBox="0 0 960 300" width="960" height="300" xmlns="http://www.w3.org/2000/svg" xmlns:xlink="http://www.w3.org/1999/xlink" version="1.1"><path d="M0 120L16 120.3C32 120.7 64 121.3 96 125.2C128 129 160 136 192 143.8C224 151.7 256 160.3 288 164.7C320 169 352 169 384 161.7C416 154.3 448 139.7 480 134.7C512 129.7 544 134.3 576 138.5C608 142.7 640 146.3 672 152C704 157.7 736 165.3 768 169.5C800 173.7 832 174.3 864 172C896 169.7 928 164.3 944 161.7L960 159L960 301L944 301C928 301 896 301 864 301C832 301 800 301 768 301C736 301 704 301 672 301C640 301 608 301 576 301C544 301 512 301 480 301C448 301 416 301 384 301C352 301 320 301 288 301C256 301 224 301 192 301C160 301 128 301 96 301C64 301 32 301 16 301L0 301Z" fill="#715df2"></path><path d="M0 177L16 174.3C32 171.7 64 166.3 96 159.5C128 152.7 160 144.3 192 147C224 149.7 256 163.3 288 170.7C320 178 352 179 384 174.8C416 170.7 448 161.3 480 154.8C512 148.3 544 144.7 576 149.3C608 154 640 167 672 172.2C704 177.3 736 174.7 768 175C800 175.3 832 178.7 864 172.7C896 166.7 928 151.3 944 143.7L960 136L960 301L944 301C928 301 896 301 864 301C832 301 800 301 768 301C736 301 704 301 672 301C640 301 608 301 576 301C544 301 512 301 480 301C448 301 416 301 384 301C352 301 320 301 288 301C256 301 224 301 192 301C160 301 128 301 96 301C64 301 32 301 16 301L0 301Z" fill="#6f58f4"></path><path d="M0 180L16 180.3C32 180.7 64 181.3 96 179.2C128 177 160 172 192 172.8C224 173.7 256 180.3 288 185.2C320 190 352 193 384 189.8C416 186.7 448 177.3 480 175.5C512 173.7 544 179.3 576 176.3C608 173.3 640 161.7 672 163.2C704 164.7 736 179.3 768 184.8C800 190.3 832 186.7 864 185.8C896 185 928 187 944 188L960 189L960 301L944 301C928 301 896 301 864 301C832 301 800 301 768 301C736 301 704 301 672 301C640 301 608 301 576 301C544 301 512 301 480 301C448 301 416 301 384 301C352 301 320 301 288 301C256 301 224 301 192 301C160 301 128 301 96 301C64 301 32 301 16 301L0 301Z" fill="#6e53f5"></path><path d="M0 208L16 203.5C32 199 64 190 96 183.3C128 176.7 160 172.3 192 176.3C224 180.3 256 192.7 288 196C320 199.3 352 193.7 384 189.5C416 185.3 448 182.7 480 178.7C512 174.7 544 169.3 576 167.8C608 166.3 640 168.7 672 171.7C704 174.7 736 178.3 768 180.8C800 183.3 832 184.7 864 187.2C896 189.7 928 193.3 944 195.2L960 197L960 301L944 301C928 301 896 301 864 301C832 301 800 301 768 301C736 301 704 301 672 301C640 301 608 301 576 301C544 301 512 301 480 301C448 301 416 301 384 301C352 301 320 301 288 301C256 301 224 301 192 301C160 301 128 301 96 301C64 301 32 301 16 301L0 301Z" fill="#6c4ef7"></path><path d="M0 199L16 199.3C32 199.7 64 200.3 96 203.8C128 207.3 160 213.7 192 212.2C224 210.7 256 201.3 288 201C320 200.7 352 209.3 384 210.5C416 211.7 448 205.3 480 198.7C512 192 544 185 576 181.5C608 178 640 178 672 183.3C704 188.7 736 199.3 768 201.2C800 203 832 196 864 191.5C896 187 928 185 944 184L960 183L960 301L944 301C928 301 896 301 864 301C832 301 800 301 768 301C736 301 704 301 672 301C640 301 608 301 576 301C544 301 512 301 480 301C448 301 416 301 384 301C352 301 320 301 288 301C256 301 224 301 192 301C160 301 128 301 96 301C64 301 32 301 16 301L0 301Z" fill="#6b49f8"></path><path d="M0 212L16 209.7C32 207.3 64 202.7 96 202C128 201.3 160 204.7 192 206.8C224 209 256 210 288 207.3C320 204.7 352 198.3 384 198.7C416 199 448 206 480 208.7C512 211.3 544 209.7 576 209C608 208.3 640 208.7 672 210C704 211.3 736 213.7 768 212.8C800 212 832 208 864 209.7C896 211.3 928 218.7 944 222.3L960 226L960 301L944 301C928 301 896 301 864 301C832 301 800 301 768 301C736 301 704 301 672 301C640 301 608 301 576 301C544 301 512 301 480 301C448 301 416 301 384 301C352 301 320 301 288 301C256 301 224 301 192 301C160 301 128 301 96 301C64 301 32 301 16 301L0 301Z" fill="#6a43f9"></path><path d="M0 211L16 210.7C32 210.3 64 209.7 96 210.2C128 210.7 160 212.3 192 214.8C224 217.3 256 220.7 288 221.3C320 222 352 220 384 221C416 222 448 226 480 226.8C512 227.7 544 225.3 576 224.8C608 224.3 640 225.7 672 225.2C704 224.7 736 222.3 768 221.8C800 221.3 832 222.7 864 225.3C896 228 928 232 944 234L960 236L960 301L944 301C928 301 896 301 864 301C832 301 800 301 768 301C736 301 704 301 672 301C640 301 608 301 576 301C544 301 512 301 480 301C448 301 416 301 384 301C352 301 320 301 288 301C256 301 224 301 192 301C160 301 128 301 96 301C64 301 32 301 16 301L0 301Z" fill="#683dfb"></path><path d="M0 224L16 225.7C32 227.3 64 230.7 96 231.7C128 232.7 160 231.3 192 230.3C224 229.3 256 228.7 288 227.3C320 226 352 224 384 226.3C416 228.7 448 235.3 480 236.2C512 237 544 232 576 229.5C608 227 640 227 672 229.3C704 231.7 736 236.3 768 238.7C800 241 832 241 864 241C896 241 928 241 944 241L960 241L960 301L944 301C928 301 896 301 864 301C832 301 800 301 768 301C736 301 704 301 672 301C640 301 608 301 576 301C544 301 512 301 480 301C448 301 416 301 384 301C352 301 320 301 288 301C256 301 224 301 192 301C160 301 128 301 96 301C64 301 32 301 16 301L0 301Z" fill="#6836fc"></path><path d="M0 234L16 236.2C32 238.3 64 242.7 96 246.3C128 250 160 253 192 252.8C224 252.7 256 249.3 288 247.7C320 246 352 246 384 246.5C416 247 448 248 480 249.5C512 251 544 253 576 254.5C608 256 640 257 672 255.7C704 254.3 736 250.7 768 250C800 249.3 832 251.7 864 251.8C896 252 928 250 944 249L960 248L960 301L944 301C928 301 896 301 864 301C832 301 800 301 768 301C736 301 704 301 672 301C640 301 608 301 576 301C544 301 512 301 480 301C448 301 416 301 384 301C352 301 320 301 288 301C256 301 224 301 192 301C160 301 128 301 96 301C64 301 32 301 16 301L0 301Z" fill="#672efd"></path><path d="M0 249L16 252.5C32 256 64 263 96 263.8C128 264.7 160 259.3 192 255.5C224 251.7 256 249.3 288 248.2C320 247 352 247 384 250.5C416 254 448 261 480 261.5C512 262 544 256 576 255.8C608 255.7 640 261.3 672 261.5C704 261.7 736 256.3 768 255.5C800 254.7 832 258.3 864 260.5C896 262.7 928 263.3 944 263.7L960 264L960 301L944 301C928 301 896 301 864 301C832 301 800 301 768 301C736 301 704 301 672 301C640 301 608 301 576 301C544 301 512 301 480 301C448 301 416 301 384 301C352 301 320 301 288 301C256 301 224 301 192 301C160 301 128 301 96 301C64 301 32 301 16 301L0 301Z" fill="#6624fe"></path><path d="M0 276L16 274.3C32 272.7 64 269.3 96 269.3C128 269.3 160 272.7 192 272.3C224 272 256 268 288 268.2C320 268.3 352 272.7 384 273.3C416 274 448 271 480 268.5C512 266 544 264 576 264.8C608 265.7 640 269.3 672 270.7C704 272 736 271 768 272C800 273 832 276 864 277C896 278 928 277 944 276.5L960 276L960 301L944 301C928 301 896 301 864 301C832 301 800 301 768 301C736 301 704 301 672 301C640 301 608 301 576 301C544 301 512 301 480 301C448 301 416 301 384 301C352 301 320 301 288 301C256 301 224 301 192 301C160 301 128 301 96 301C64 301 32 301 16 301L0 301Z" fill="#6617fe"></path><path d="M0 284L16 284.3C32 284.7 64 285.3 96 284.3C128 283.3 160 280.7 192 280.7C224 280.7 256 283.3 288 284.7C320 286 352 286 384 284.5C416 283 448 280 480 278.5C512 277 544 277 576 277.8C608 278.7 640 280.3 672 280.7C704 281 736 280 768 279.2C800 278.3 832 277.7 864 279.2C896 280.7 928 284.3 944 286.2L960 288L960 301L944 301C928 301 896 301 864 301C832 301 800 301 768 301C736 301 704 301 672 301C640 301 608 301 576 301C544 301 512 301 480 301C448 301 416 301 384 301C352 301 320 301 288 301C256 301 224 301 192 301C160 301 128 301 96 301C64 301 32 301 16 301L0 301Z" fill="#6600ff"></path></svg>